<?xml version="1.0" standalone="no"?><!DOCTYPE svg PUBLIC "-//W3C//DTD SVG 1.1//EN" "http://www.w3.org/Graphics/SVG/1.1/DTD/svg11.dtd"><svg t="1541334162945" class="icon" style="" viewBox="0 0 1024 1024" version="1.1" xmlns="http://www.w3.org/2000/svg" p-id="15893" xmlns:xlink="http://www.w3.org/1999/xlink" width="128" height="128"><defs><style type="text/css"></style></defs><path d="M257.024 690.33984 200.86784 690.33984c-43.78624 0-79.29856 78.27456-79.29856 78.27456L19.61984 1003.52l321.16736 0C340.7872 1003.52 329.728 690.33984 257.024 690.33984zM418.93888 651.14112c75.65312 0 144.42496-28.42624 196.56704-74.71104-43.54048-1.06496-84.13184-4.17792-120.2176-8.8064-23.87968 8.56064-49.47968 13.47584-76.34944 13.47584-114.64704 0-209.01888-85.23776-221.96224-195.01056C223.68256 315.96544 233.59488 219.50464 285.0816 222.90432c74.5472 183.0912 231.05536 78.11072 349.55264 79.872 4.99712 18.35008 7.86432 37.56032 7.86432 57.46688 0 28.79488-5.7344 56.27904-15.93344 81.5104 7.90528-0.12288 15.89248-0.24576 23.9616-0.24576 17.32608 0 34.16064 0.36864 50.70848 0.94208 7.74144-26.09152 12.12416-53.6576 12.12416-82.20672 0-16.75264-1.76128-33.09568-4.5056-49.02912 5.85728-257.67936-152.00256-286.55616-322.19136-286.55616-9.66656 0-167.56736-4.34176-205.2096 86.26176 5.85728 40.22272 20.19328 82.90304 52.38784 112.72192C180.46976 217.78432 153.23136 180.75648 139.30496 146.67776 111.28832 174.4896 81.92 220.44672 81.92 284.13952c0 84.7872 35.30752 145.57184 56.03328 163.51232C175.5136 565.57568 287.08864 651.14112 418.93888 651.14112zM404.02944 787.37408l-39.64928 145.98144 36.33152 68.52608 61.93152 0 34.69312-71.76192-39.64928-143.5648L404.02944 787.37408zM498.19648 509.25568c0 25.64096 94.86336 46.4896 211.84512 46.4896 30.43328 0 59.31008-1.4336 85.48352-3.97312l0-85.03296c-26.17344-2.58048-55.05024-10.52672-85.48352-10.52672C593.05984 456.21248 498.19648 483.57376 498.19648 509.25568zM379.24864 768.6144l99.1232 0 24.7808-78.27456L354.5088 690.33984 379.24864 768.6144zM815.39072 471.77728l0 74.91584c52.46976-8.47872 63.16032-22.07744 63.16032-37.43744C878.55104 493.85472 867.86048 480.256 815.39072 471.77728zM656.7936 690.33984l-61.11232 0c-61.11232 0-78.11072 313.18016-78.11072 313.18016l303.47264 0-84.95104-234.9056C736.0512 768.6144 700.57984 690.33984 656.7936 690.33984zM897.14688 24.73984c-27.2384 18.96448-59.47392 94.74048-37.15072 189.44 12.36992 75.776 99.08224 89.33376 12.36992 219.21792C1078.02624 333.25056 867.36896 197.91872 897.14688 24.73984z" p-id="15894"></path></svg>