<?xml version="1.0" standalone="no"?><!DOCTYPE svg PUBLIC "-//W3C//DTD SVG 1.1//EN" "http://www.w3.org/Graphics/SVG/1.1/DTD/svg11.dtd"><svg t="1541345396646" class="icon" style="" viewBox="0 0 1024 1024" version="1.1" xmlns="http://www.w3.org/2000/svg" p-id="24225" xmlns:xlink="http://www.w3.org/1999/xlink" width="128" height="128"><defs><style type="text/css"></style></defs><path d="M1020.74257 554.152122l-1.020986 3.403286-1.361314 4.570126a117.656443 117.656443 0 0 1-75.893268 87.513057 176.873611 176.873611 0 0 1-56.397303 9.188871H687.41506c2.528155 15.946824 5.153547 31.21299 8.119267 46.479157a258.066281 258.066281 0 0 1-5.834204 136.520368c-8.654069 25.28155-18.183268 50.465863-27.566612 74.726427l-10.258475 26.934574a108.759282 108.759282 0 0 1-61.161903 64.711043 173.713418 173.713418 0 0 1-67.093344 14.00209 160.440604 160.440604 0 0 1-75.018137-18.815308 99.959358 99.959358 0 0 1-56.834868-94.659956c0.340329-13.710379 0.680657-27.712468 0.87513-41.276992 0.486184-22.89925 0.923749-46.722249 1.944735-70.302155a17.599848 17.599848 0 0 0-2.479537-11.279461c-8.362359-14.585509-16.870573-29.171019-25.087076-43.4162-19.447346-34.032855-39.672586-69.135315-60.529864-102.536131a139.777799 139.777799 0 0 0-93.882063-55.279081H83.623588a82.019181 82.019181 0 0 1-82.0678-82.019181V83.283259A82.019181 82.019181 0 0 1 83.623588 1.215459h686.053746a260.351344 260.351344 0 0 1 82.019181 11.182224 148.626341 148.626341 0 0 1 105.307378 133.068465 175.026113 175.026113 0 0 1-2.96572 52.31336 155.578767 155.578767 0 0 1 25.86497 94.708575 133.79774 133.79774 0 0 1-4.861836 27.663849 139.534707 139.534707 0 0 1 20.760041 121.01111 158.009686 158.009686 0 0 1 22.413067 50.806192l4.472889 5.834203v50.125535zM211.149558 502.859747H83.526351V83.526351h127.623207v419.333396z m729.275473 32.817397v-15.606495l-2.139208-8.897161a72.927547 72.927547 0 0 0-10.598804-24.017472l-21.537935-31.796411 10.550185-36.949957a65.586174 65.586174 0 0 0 2.528155-14.58551 64.322097 64.322097 0 0 0-12.397683-38.165416l-21.440699-31.942266 10.793277-36.804102a51.389612 51.389612 0 0 0 1.847498-10.11262 75.21261 75.21261 0 0 0-13.175577-44.923369l-18.037413-28.490362 6.028677-28.684835 0.923749-3.889469a91.013579 91.013579 0 0 0 1.604406-27.66385V151.737917a68.065711 68.065711 0 0 0-13.953471-37.922325A72.392745 72.392745 0 0 0 826.512202 90.430159a182.464723 182.464723 0 0 0-56.640395-7.049663H548.172063c-54.11224 0-118.142627-0.340329-181.638211-0.340329h-72.927547l0.680657 441.795081a196.466812 196.466812 0 0 1 81.48438 71.08005c21.294844 34.032855 41.61732 69.475643 61.210521 103.702972l0.777894 1.215459c5.104928 9.140253 10.598804 18.474979 15.849587 27.566613 2.917102 4.861836 5.785585 10.161238 8.751306 15.16893a99.132846 99.132846 0 0 1 13.564523 57.321052c-0.826512 21.537936-1.264077 43.756528-1.701642 65.197227v1.896116c0 15.75235-0.58342 28.83069-0.923749 41.957649a18.523597 18.523597 0 0 0 2.139208 10.939132 28.295888 28.295888 0 0 0 10.744658 8.751306 77.789384 77.789384 0 0 0 36.949958 9.480581 92.083183 92.083183 0 0 0 35.442788-7.633083 27.129048 27.129048 0 0 0 15.995442-17.891559c3.451904-8.994397 6.855189-18.231887 10.40433-27.372139 10.258475-26.740101 18.669452-49.104548 26.642864-72.101035a179.499003 179.499003 0 0 0 2.868483-94.027918 1421.017567 1421.017567 0 0 1-8.654069-49.104548l-15.509258-95.243377H784.36008c29.171019 0 64.176242 0 99.521793-0.340328h1.604406a92.374893 92.374893 0 0 0 29.462729-4.861837 36.463774 36.463774 0 0 0 23.288196-30.046149 32.039502 32.039502 0 0 0 1.79888-6.417624z" p-id="24226"></path></svg>