<?xml version="1.0" standalone="no"?><!DOCTYPE svg PUBLIC "-//W3C//DTD SVG 1.1//EN" "http://www.w3.org/Graphics/SVG/1.1/DTD/svg11.dtd"><svg t="1523084427418" class="icon" style="" viewBox="0 0 1024 1024" version="1.1" xmlns="http://www.w3.org/2000/svg" p-id="3891" xmlns:xlink="http://www.w3.org/1999/xlink" width="200" height="200"><defs><style type="text/css"></style></defs><path d="M512 384a128 128 0 0 0-128 128 128 128 0 0 0 128 128 128 128 0 0 0 128-128 128 128 0 0 0-128-128m0 341.333333a213.333333 213.333333 0 0 1-213.333333-213.333333 213.333333 213.333333 0 0 1 213.333333-213.333333 213.333333 213.333333 0 0 1 213.333333 213.333333 213.333333 213.333333 0 0 1-213.333333 213.333333m0-533.333333C298.666667 192 116.48 324.693333 42.666667 512c73.813333 187.306667 256 320 469.333333 320s395.52-132.693333 469.333333-320c-73.813333-187.306667-256-320-469.333333-320z" fill="" p-id="3892"></path></svg>