<?xml version="1.0" standalone="no"?><!DOCTYPE svg PUBLIC "-//W3C//DTD SVG 1.1//EN" "http://www.w3.org/Graphics/SVG/1.1/DTD/svg11.dtd"><svg t="1523084363353" class="icon" style="" viewBox="0 0 1024 1024" version="1.1" xmlns="http://www.w3.org/2000/svg" p-id="2839" xmlns:xlink="http://www.w3.org/1999/xlink" width="200" height="200"><defs><style type="text/css"></style></defs><path d="M499.626667 810.666667C423.68 810.666667 362.666667 750.506667 362.666667 676.693333 362.666667 607.573333 406.613333 558.933333 482.133333 543.573333 557.653333 528.213333 635.733333 491.946667 679.253333 433.493333 695.893333 488.533333 704 546.56 704 605.866667 704 718.506667 612.693333 810.666667 499.626667 810.666667M576 28.586667C576 28.586667 607.573333 141.653333 607.573333 233.386667 607.573333 321.28 549.973333 392.533333 462.08 392.533333 373.76 392.533333 307.2 321.28 307.2 233.386667L308.48 217.6C222.293333 320 170.666667 452.693333 170.666667 597.333333 170.666667 785.92 323.413333 938.666667 512 938.666667 700.586667 938.666667 853.333333 785.92 853.333333 597.333333 853.333333 366.933333 742.826667 162.133333 576 28.586667Z" p-id="2840"></path></svg>