<?xml version="1.0" standalone="no"?><!DOCTYPE svg PUBLIC "-//W3C//DTD SVG 1.1//EN" "http://www.w3.org/Graphics/SVG/1.1/DTD/svg11.dtd"><svg t="1523084801885" class="icon" style="" viewBox="0 0 1024 1024" version="1.1" xmlns="http://www.w3.org/2000/svg" p-id="14926" xmlns:xlink="http://www.w3.org/1999/xlink" width="200" height="200"><defs><style type="text/css"></style></defs><path d="M907.153527 495.004149" p-id="14927"></path><path d="M917.775934 393.029046c0-16.995851-8.497925-31.86722-19.120332-42.489627l0 0L569.360996 42.489627l0 0c-14.871369-12.746888-36.116183-21.244813-57.360996-21.244813-21.244813 0-42.489627 8.497925-57.360996 21.244813l0 0L125.344398 348.414938l0 0c-12.746888 10.622407-19.120332 25.493776-19.120332 42.489627 0 2.124481 0 6.373444 0 6.373444l0 545.991701c0 31.86722 25.493776 57.360996 57.360996 57.360996l172.082988 0 0 0c31.86722 0 57.360996-25.493776 57.360996-57.360996l0-184.829876c0-16.995851 12.746888-29.742739 29.742739-29.742739L509.875519 728.697095l2.124481 0 89.228216 0c16.995851 0 29.742739 12.746888 29.742739 29.742739l0 184.829876c0 31.86722 25.493776 57.360996 57.360996 57.360996l172.082988 0 0 0c31.86722 0 57.360996-25.493776 57.360996-57.360996l0-545.991701C917.775934 397.278008 917.775934 395.153527 917.775934 393.029046zM860.414938 915.651452c0 16.995851-12.746888 29.742739-29.742739 29.742739l-114.721992 0 0 0c-16.995851 0-29.742739-12.746888-29.742739-29.742739l0-184.829876c0-31.86722-25.493776-57.360996-57.360996-57.360996l-118.970954 0-118.970954 0c-31.86722 0-57.360996 25.493776-57.360996 57.360996l0 184.829876c0 16.995851-12.746888 29.742739-29.742739 29.742739l0 0L193.327801 945.394191c-16.995851 0-29.742739-12.746888-29.742739-29.742739 0 0 0-509.875519 0-512 0-8.497925 4.248963-16.995851 10.622407-23.369295L473.759336 101.975104c10.622407-8.497925 23.369295-12.746888 36.116183-12.746888 14.871369 0 29.742739 6.373444 40.365145 16.995851l0 0 297.427386 278.307054c6.373444 4.248963 10.622407 12.746888 10.622407 23.369295 0 2.124481 0 2.124481 0 4.248963L860.414938 915.651452z" p-id="14928"></path></svg>