<?xml version="1.0" standalone="no"?><!DOCTYPE svg PUBLIC "-//W3C//DTD SVG 1.1//EN" "http://www.w3.org/Graphics/SVG/1.1/DTD/svg11.dtd"><svg t="1541316329889" class="icon" style="" viewBox="0 0 1024 1024" version="1.1" xmlns="http://www.w3.org/2000/svg" p-id="6315" xmlns:xlink="http://www.w3.org/1999/xlink" width="128" height="128"><defs><style type="text/css"></style></defs><path d="M196.906667 724.693333V409.6a315.221333 315.221333 0 0 1 252.074666-308.778667v-37.802666a63.018667 63.018667 0 1 1 126.037334 0v37.802666A315.221333 315.221333 0 0 1 827.093333 409.6v315.093333h31.573334c34.773333 0 62.933333 27.946667 62.933333 63.018667 0 34.816-28.16 62.976-62.933333 62.976H165.333333A62.805333 62.805333 0 0 1 102.4 787.712c0-34.816 28.16-63.018667 62.933333-63.018667h31.573334z m409.6 189.013334a94.506667 94.506667 0 1 1-189.013334 0h189.013334z" p-id="6316"></path></svg>