<?xml version="1.0" standalone="no"?><!DOCTYPE svg PUBLIC "-//W3C//DTD SVG 1.1//EN" "http://www.w3.org/Graphics/SVG/1.1/DTD/svg11.dtd"><svg t="1541344097154" class="icon" style="" viewBox="0 0 1024 1024" version="1.1" xmlns="http://www.w3.org/2000/svg" p-id="22869" xmlns:xlink="http://www.w3.org/1999/xlink" width="128" height="128"><defs><style type="text/css"></style></defs><path d="M874.268856 149.902921C777.490695 53.257221 648.919639 0 512.079221 0 375.301378 0 246.682534 53.257221 150.015879 149.902921 53.270715 246.629551 4.0e-06 375.226114 4.0e-06 512-0.015925 648.806259 53.19107 777.371607 149.904376 874.09708 246.61882 970.757809 375.221734 1024 511.982507 1024 648.838856 1024 777.489556 970.709252 874.267715 874.032335 1073.903176 674.435393 1073.917968 349.596979 874.268856 149.902921L874.268856 149.902921 874.268856 149.902921 874.268856 149.902921ZM811.823113 811.559542C731.744621 891.575211 625.244935 935.724138 512.010627 935.724138 398.80662 935.724138 292.367538 891.621394 212.349652 811.650809 132.330682 731.63514 88.245575 625.203786 88.275878 511.992302 88.275878 398.764325 132.360983 292.317578 212.410255 212.332698 292.473595 132.317028 398.868307 88.275862 512.087464 88.275862 625.30554 88.275862 731.745704 132.318128 811.824195 212.332698 977.024298 377.548648 977.024298 646.373281 811.823113 811.559542L811.823113 811.559542 811.823113 811.559542 811.823113 811.559542ZM679.940536 337.646444C647.0965 337.646444 620.426741 363.796785 620.426741 396.042364 620.426741 428.256325 647.0965 454.438283 679.940536 454.438283 712.863613 454.438283 739.485947 428.256325 739.485947 396.042364 739.485948 363.795657 712.863613 337.646444 679.940536 337.646444L679.940536 337.646444 679.940536 337.646444 679.940536 337.646444ZM363.119291 454.438285C396.042369 454.438285 422.664702 428.256325 422.664702 396.042365 422.664702 363.795657 396.042369 337.646444 363.119291 337.646444 330.322679 337.646444 303.558072 363.796787 303.558072 396.042365 303.558072 428.256325 330.305743 454.438285 363.119291 454.438285L363.119291 454.438285 363.119291 454.438285 363.119291 454.438285ZM508.722919 584.44588C425.594887 584.44588 352.281561 627.324808 308.75675 692.982392 295.351298 713.193325 310.048514 740.350882 334.197977 740.350882L336.545511 740.350882C346.233752 740.350882 355.622762 735.845512 361.104861 727.71778 393.618052 679.735022 447.603452 648.355515 508.724049 648.355515 570.159683 648.355515 624.444312 679.277711 656.879591 727.62293 662.330073 735.751791 671.766509 740.336202 681.516853 740.336202L682.98138 740.336202C707.115033 740.383627 721.81338 713.162835 708.39099 692.98239 664.787135 627.450146 591.630763 584.44588 508.722919 584.44588L508.722919 584.44588 508.722919 584.44588 508.722919 584.44588Z" p-id="22870"></path></svg>