<?xml version="1.0" standalone="no"?><!DOCTYPE svg PUBLIC "-//W3C//DTD SVG 1.1//EN" "http://www.w3.org/Graphics/SVG/1.1/DTD/svg11.dtd"><svg t="1541342300430" class="icon" style="" viewBox="0 0 1024 1024" version="1.1" xmlns="http://www.w3.org/2000/svg" p-id="16653" xmlns:xlink="http://www.w3.org/1999/xlink" width="128" height="128"><defs><style type="text/css"></style></defs><path d="M536.70024 59.7c-10.3 0-20.8 3.4-29.9 11.1L250.90024 297l-179.9 0.3C32.00024 297.3 0.50024 329.2 0.40024 368.5L0.00024 678.4C-0.09976 717.9 31.60024 750 70.70024 750h182.6l252.4 203.3c9.1 7.6 19.6 11.1 29.8 11.1 24.3 0 47.4-19.3 47.4-47.7l1.2-809.2C584.00024 79 561.00024 59.7 536.70024 59.7z m-23.6 808.6L296.40024 693.8c-12.3-9.9-27.5-15.3-43.2-15.3H69.80024l1.3-309.9 179.9-0.3c16.7 0 32.9-6.2 45.6-17.4l217.6-192.3-1.1 709.7z m0 0M720.10024 277.2c-16.1-10.9-37.7-6.4-48.4 10-10.7 16.4-6.3 38.6 9.8 49.5 54.5 37 87 98.4 87 164.2 0 63.3-30.5 123.3-81.7 160.6-15.7 11.4-19.4 33.7-8.2 49.8 6.8 9.8 17.6 15 28.5 15 7 0 14.1-2.1 20.2-6.6 69.5-50.6 111-132.4 111-218.8 0-89.8-44.2-173.4-118.2-223.7z m0 0" fill="" p-id="16654"></path><path d="M868.30024 147.1c-14.4-13.1-36.4-11.9-49.3 2.9-12.8 14.7-11.6 37.3 2.8 50.4 84.1 76.8 132.4 186.4 132.4 300.6 0 111.4-44 215.3-123.9 292.6-14 13.5-14.6 36.1-1.4 50.5 6.9 7.4 16.1 11.2 25.4 11.2 8.6 0 17.2-3.2 24-9.8 94-90.9 145.7-213.3 145.7-344.5 0-134.6-56.7-263.5-155.7-353.9z m0 0" fill="" p-id="16655"></path></svg>